<?xml version="1.0" standalone="no"?>
<!DOCTYPE svg PUBLIC "-//W3C//DTD SVG 1.1//EN" "http://www.w3.org/Graphics/SVG/1.1/DTD/svg11.dtd">
<svg width="1604px" height="1000px" version="1.1" xmlns="http://www.w3.org/2000/svg" xmlns:xlink="http://www.w3.org/1999/xlink" xml:space="preserve" style="fill-rule:evenodd;clip-rule:evenodd;stroke-linejoin:round;stroke-miterlimit:1.41421;">
    <g>
        <g id="Skybox">
            <g>
                <rect x="-5.32326" y="-5.86465" width="1648.49" height="744.194" style="fill:rgb(172,206,236);"/>
            </g>
        </g>
        <g id="Bushes - Rear">
            <g>
                <path d="M168.115,321.127C184.297,321.127 197.415,334.972 197.415,352.05C197.415,369.129 184.297,382.974 168.115,382.974C151.932,382.974 138.814,369.129 138.814,352.05C138.814,334.972 151.932,321.127 168.115,321.127Z" style="fill:rgb(136,172,122);"/>
            </g>
            <g>
                <path d="M207.287,327.134C223.469,327.134 236.588,340.979 236.588,358.057C236.588,375.136 223.469,388.981 207.287,388.981C191.105,388.981 177.987,375.136 177.987,358.057C177.987,340.979 191.105,327.134 207.287,327.134Z" style="fill:rgb(136,172,122);"/>
            </g>
            <g>
                <path d="M244.689,322.791C260.871,322.791 273.99,336.636 273.99,353.714C273.99,370.792 260.871,384.637 244.689,384.637C228.507,384.637 215.389,370.792 215.389,353.714C215.389,336.636 228.507,322.791 244.689,322.791Z" style="fill:rgb(136,172,122);"/>
            </g>
            <g>
                <path d="M288.193,326.08C304.375,326.08 317.493,339.924 317.493,357.003C317.493,374.081 304.375,387.926 288.193,387.926C272.011,387.926 258.892,374.081 258.892,357.003C258.892,339.924 272.011,326.08 288.193,326.08Z" style="fill:rgb(136,172,122);"/>
            </g>
            <g>
                <path d="M323.258,318.885C339.44,318.885 352.558,332.729 352.558,349.808C352.558,366.886 339.44,380.731 323.258,380.731C307.076,380.731 293.958,366.886 293.958,349.808C293.958,332.729 307.076,318.885 323.258,318.885Z" style="fill:rgb(136,172,122);"/>
            </g>
            <g>
                <path d="M358.666,329.132C374.848,329.132 387.966,342.977 387.966,360.056C387.966,377.134 374.848,390.979 358.666,390.979C342.484,390.979 329.366,377.134 329.366,360.056C329.366,342.977 342.484,329.132 358.666,329.132Z" style="fill:rgb(136,172,122);"/>
            </g>
            <g>
                <path d="M395.686,322.319C411.868,322.319 424.987,336.164 424.987,353.242C424.987,370.321 411.868,384.166 395.686,384.166C379.504,384.166 366.386,370.321 366.386,353.242C366.386,336.164 379.504,322.319 395.686,322.319Z" style="fill:rgb(136,172,122);"/>
            </g>
            <g>
                <path d="M439.906,317.6C456.088,317.6 469.206,331.444 469.206,348.523C469.206,365.601 456.088,379.446 439.906,379.446C423.724,379.446 410.606,365.601 410.606,348.523C410.606,331.444 423.724,317.6 439.906,317.6Z" style="fill:rgb(136,172,122);"/>
            </g>
            <g>
                <path d="M478.937,323.035C495.119,323.035 508.237,336.88 508.237,353.958C508.237,371.037 495.119,384.882 478.937,384.882C462.755,384.882 449.637,371.037 449.637,353.958C449.637,336.88 462.755,323.035 478.937,323.035Z" style="fill:rgb(136,172,122);"/>
            </g>
            <g>
                <path d="M12.762,319.841C28.9441,319.841 42.0623,333.686 42.0623,350.764C42.0623,367.843 28.9441,381.687 12.762,381.687C-3.42006,381.687 -16.5382,367.843 -16.5382,350.764C-16.5382,333.686 -3.42006,319.841 12.762,319.841Z" style="fill:rgb(136,172,122);"/>
            </g>
            <g>
                <path d="M48.1702,330.089C64.3523,330.089 77.4705,343.934 77.4705,361.012C77.4705,378.09 64.3523,391.935 48.1702,391.935C31.9881,391.935 18.8699,378.09 18.8699,361.012C18.8699,343.934 31.9881,330.089 48.1702,330.089Z" style="fill:rgb(136,172,122);"/>
            </g>
            <g>
                <path d="M85.1906,323.276C101.373,323.276 114.491,337.12 114.491,354.199C114.491,371.277 101.373,385.122 85.1906,385.122C69.0085,385.122 55.8903,371.277 55.8903,354.199C55.8903,337.12 69.0085,323.276 85.1906,323.276Z" style="fill:rgb(136,172,122);"/>
            </g>
            <g>
                <path d="M129.41,327.04C145.592,327.04 158.71,340.885 158.71,357.963C158.71,375.042 145.592,388.887 129.41,388.887C113.228,388.887 100.11,375.042 100.11,357.963C100.11,340.885 113.228,327.04 129.41,327.04Z" style="fill:rgb(136,172,122);"/>
            </g>
            <g>
                <path d="M168.441,312.585C184.623,312.585 197.742,326.429 197.742,343.508C197.742,360.586 184.623,374.431 168.441,374.431C152.259,374.431 139.141,360.586 139.141,343.508C139.141,326.429 152.259,312.585 168.441,312.585Z" style="fill:rgb(136,172,122);"/>
            </g>
            <g>
                <path d="M516.952,322.268C533.134,322.268 546.253,336.112 546.253,353.191C546.253,370.269 533.134,384.114 516.952,384.114C500.77,384.114 487.652,370.269 487.652,353.191C487.652,336.112 500.77,322.268 516.952,322.268Z" style="fill:rgb(136,172,122);"/>
            </g>
            <g>
                <path d="M559.187,324.133C575.369,324.133 588.487,337.978 588.487,355.056C588.487,372.134 575.369,385.979 559.187,385.979C543.004,385.979 529.886,372.134 529.886,355.056C529.886,337.978 543.004,324.133 559.187,324.133Z" style="fill:rgb(136,172,122);"/>
            </g>
            <g>
                <path d="M598.359,330.14C614.541,330.14 627.66,343.985 627.66,361.063C627.66,378.142 614.541,391.986 598.359,391.986C582.177,391.986 569.059,378.142 569.059,361.063C569.059,343.985 582.177,330.14 598.359,330.14Z" style="fill:rgb(136,172,122);"/>
            </g>
            <g>
                <path d="M635.761,317.14C651.943,317.14 665.062,330.985 665.062,348.064C665.062,365.142 651.943,378.987 635.761,378.987C619.579,378.987 606.461,365.142 606.461,348.064C606.461,330.985 619.579,317.14 635.761,317.14Z" style="fill:rgb(136,172,122);"/>
            </g>
            <g>
                <path d="M679.265,329.085C695.447,329.085 708.565,342.93 708.565,360.008C708.565,377.087 695.447,390.932 679.265,390.932C663.083,390.932 649.964,377.087 649.964,360.008C649.964,342.93 663.083,329.085 679.265,329.085Z" style="fill:rgb(136,172,122);"/>
            </g>
            <g>
                <path d="M714.33,321.89C730.512,321.89 743.63,335.735 743.63,352.814C743.63,369.892 730.512,383.737 714.33,383.737C698.148,383.737 685.03,369.892 685.03,352.814C685.03,335.735 698.148,321.89 714.33,321.89Z" style="fill:rgb(136,172,122);"/>
            </g>
            <g>
                <path d="M749.738,332.138C765.92,332.138 779.038,345.983 779.038,363.061C779.038,380.14 765.92,393.984 749.738,393.984C733.556,393.984 720.438,380.14 720.438,363.061C720.438,345.983 733.556,332.138 749.738,332.138Z" style="fill:rgb(136,172,122);"/>
            </g>
            <g>
                <path d="M786.758,325.325C802.94,325.325 816.059,339.17 816.059,356.248C816.059,373.326 802.94,387.171 786.758,387.171C770.576,387.171 757.458,373.326 757.458,356.248C757.458,339.17 770.576,325.325 786.758,325.325Z" style="fill:rgb(136,172,122);"/>
            </g>
            <g>
                <path d="M830.978,329.09C847.16,329.09 860.278,342.934 860.278,360.013C860.278,377.091 847.16,390.936 830.978,390.936C814.796,390.936 801.678,377.091 801.678,360.013C801.678,342.934 814.796,329.09 830.978,329.09Z" style="fill:rgb(136,172,122);"/>
            </g>
            <g>
                <path d="M870.009,326.041C886.191,326.041 899.309,339.886 899.309,356.964C899.309,374.043 886.191,387.887 870.009,387.887C853.827,387.887 840.709,374.043 840.709,356.964C840.709,339.886 853.827,326.041 870.009,326.041Z" style="fill:rgb(136,172,122);"/>
            </g>
            <g>
                <path d="M908.024,325.273C924.206,325.273 937.325,339.118 937.325,356.197C937.325,373.275 924.206,387.12 908.024,387.12C891.842,387.12 878.724,373.275 878.724,356.197C878.724,339.118 891.842,325.273 908.024,325.273Z" style="fill:rgb(136,172,122);"/>
            </g>
            <g>
                <path d="M939.128,326.757C955.31,326.757 968.428,340.602 968.428,357.68C968.428,374.759 955.31,388.603 939.128,388.603C922.945,388.603 909.827,374.759 909.827,357.68C909.827,340.602 922.945,326.757 939.128,326.757Z" style="fill:rgb(136,172,122);"/>
            </g>
            <g>
                <path d="M978.3,321.835C994.482,321.835 1007.6,335.68 1007.6,352.758C1007.6,369.837 994.482,383.682 978.3,383.682C962.118,383.682 949,369.837 949,352.758C949,335.68 962.118,321.835 978.3,321.835Z" style="fill:rgb(136,172,122);"/>
            </g>
            <g>
                <path d="M1015.7,328.421C1031.88,328.421 1045,342.265 1045,359.344C1045,376.422 1031.88,390.267 1015.7,390.267C999.52,390.267 986.402,376.422 986.402,359.344C986.402,342.265 999.52,328.421 1015.7,328.421Z" style="fill:rgb(136,172,122);"/>
            </g>
            <g>
                <path d="M1059.21,331.709C1075.39,331.709 1088.51,345.554 1088.51,362.632C1088.51,379.711 1075.39,393.556 1059.21,393.556C1043.02,393.556 1029.91,379.711 1029.91,362.632C1029.91,345.554 1043.02,331.709 1059.21,331.709Z" style="fill:rgb(136,172,122);"/>
            </g>
            <g>
                <path d="M1094.27,324.514C1110.45,324.514 1123.57,338.359 1123.57,355.438C1123.57,372.516 1110.45,386.361 1094.27,386.361C1078.09,386.361 1064.97,372.516 1064.97,355.438C1064.97,338.359 1078.09,324.514 1094.27,324.514Z" style="fill:rgb(136,172,122);"/>
            </g>
            <g>
                <path d="M1129.68,334.762C1145.86,334.762 1158.98,348.607 1158.98,365.685C1158.98,382.764 1145.86,396.609 1129.68,396.609C1113.5,396.609 1100.38,382.764 1100.38,365.685C1100.38,348.607 1113.5,334.762 1129.68,334.762Z" style="fill:rgb(136,172,122);"/>
            </g>
            <g>
                <path d="M1166.7,327.949C1182.88,327.949 1196,341.794 1196,358.872C1196,375.951 1182.88,389.795 1166.7,389.795C1150.52,389.795 1137.4,375.951 1137.4,358.872C1137.4,341.794 1150.52,327.949 1166.7,327.949Z" style="fill:rgb(136,172,122);"/>
            </g>
            <g>
                <path d="M1210.92,331.714C1227.1,331.714 1240.22,345.558 1240.22,362.637C1240.22,379.715 1227.1,393.56 1210.92,393.56C1194.74,393.56 1181.62,379.715 1181.62,362.637C1181.62,345.558 1194.74,331.714 1210.92,331.714Z" style="fill:rgb(136,172,122);"/>
            </g>
            <g>
                <path d="M1249.95,328.665C1266.13,328.665 1279.25,342.51 1279.25,359.588C1279.25,376.667 1266.13,390.511 1249.95,390.511C1233.77,390.511 1220.65,376.667 1220.65,359.588C1220.65,342.51 1233.77,328.665 1249.95,328.665Z" style="fill:rgb(136,172,122);"/>
            </g>
            <g>
                <path d="M1287.97,327.898C1304.15,327.898 1317.27,341.742 1317.27,358.821C1317.27,375.899 1304.15,389.744 1287.97,389.744C1271.78,389.744 1258.66,375.899 1258.66,358.821C1258.66,341.742 1271.78,327.898 1287.97,327.898Z" style="fill:rgb(136,172,122);"/>
            </g>
            <g>
                <path d="M1131.75,317.581C1147.93,317.581 1161.05,331.425 1161.05,348.504C1161.05,365.582 1147.93,379.427 1131.75,379.427C1115.57,379.427 1102.45,365.582 1102.45,348.504C1102.45,331.425 1115.57,317.581 1131.75,317.581Z" style="fill:rgb(136,172,122);"/>
            </g>
            <g>
                <path d="M1170.92,335.414C1187.1,335.414 1200.22,349.259 1200.22,366.337C1200.22,383.416 1187.1,397.26 1170.92,397.26C1154.74,397.26 1141.62,383.416 1141.62,366.337C1141.62,349.259 1154.74,335.414 1170.92,335.414Z" style="fill:rgb(136,172,122);"/>
            </g>
            <g>
                <path d="M1208.32,331.07C1224.51,331.07 1237.63,344.915 1237.63,361.994C1237.63,379.072 1224.51,392.917 1208.32,392.917C1192.14,392.917 1179.02,379.072 1179.02,361.994C1179.02,344.915 1192.14,331.07 1208.32,331.07Z" style="fill:rgb(136,172,122);"/>
            </g>
            <g>
                <path d="M1251.83,334.359C1268.01,334.359 1281.13,348.204 1281.13,365.282C1281.13,382.361 1268.01,396.206 1251.83,396.206C1235.65,396.206 1222.53,382.361 1222.53,365.282C1222.53,348.204 1235.65,334.359 1251.83,334.359Z" style="fill:rgb(136,172,122);"/>
            </g>
            <g>
                <path d="M1286.89,327.164C1303.08,327.164 1316.19,341.009 1316.19,358.087C1316.19,375.166 1303.08,389.011 1286.89,389.011C1270.71,389.011 1257.59,375.166 1257.59,358.087C1257.59,341.009 1270.71,327.164 1286.89,327.164Z" style="fill:rgb(136,172,122);"/>
            </g>
            <g>
                <path d="M1322.3,337.412C1338.48,337.412 1351.6,351.257 1351.6,368.335C1351.6,385.414 1338.48,399.258 1322.3,399.258C1306.12,399.258 1293,385.414 1293,368.335C1293,351.257 1306.12,337.412 1322.3,337.412Z" style="fill:rgb(136,172,122);"/>
            </g>
            <g>
                <path d="M1359.32,330.599C1375.5,330.599 1388.62,344.444 1388.62,361.522C1388.62,378.6 1375.5,392.445 1359.32,392.445C1343.14,392.445 1330.02,378.6 1330.02,361.522C1330.02,344.444 1343.14,330.599 1359.32,330.599Z" style="fill:rgb(136,172,122);"/>
            </g>
            <g>
                <path d="M1403.54,334.363C1419.72,334.363 1432.84,348.208 1432.84,365.287C1432.84,382.365 1419.72,396.21 1403.54,396.21C1387.36,396.21 1374.24,382.365 1374.24,365.287C1374.24,348.208 1387.36,334.363 1403.54,334.363Z" style="fill:rgb(136,172,122);"/>
            </g>
            <g>
                <path d="M1442.57,331.315C1458.75,331.315 1471.87,345.16 1471.87,362.238C1471.87,379.316 1458.75,393.161 1442.57,393.161C1426.39,393.161 1413.27,379.316 1413.27,362.238C1413.27,345.16 1426.39,331.315 1442.57,331.315Z" style="fill:rgb(136,172,122);"/>
            </g>
            <g>
                <path d="M1480.59,330.547C1496.77,330.547 1509.89,344.392 1509.89,361.471C1509.89,378.549 1496.77,392.394 1480.59,392.394C1464.41,392.394 1451.29,378.549 1451.29,361.471C1451.29,344.392 1464.41,330.547 1480.59,330.547Z" style="fill:rgb(136,172,122);"/>
            </g>
            <g>
                <rect x="-30.1559" y="370.432" width="1688.81" height="195.481" style="fill:rgb(136,172,122);"/>
            </g>
            <g>
                <path d="M1439.45,326.205C1455.63,326.205 1468.75,340.05 1468.75,357.128C1468.75,374.206 1455.63,388.051 1439.45,388.051C1423.27,388.051 1410.15,374.206 1410.15,357.128C1410.15,340.05 1423.27,326.205 1439.45,326.205Z" style="fill:rgb(136,172,122);"/>
            </g>
            <g>
                <path d="M1478.62,327.016C1494.8,327.016 1507.92,340.861 1507.92,357.939C1507.92,375.018 1494.8,388.862 1478.62,388.862C1462.44,388.862 1449.32,375.018 1449.32,357.939C1449.32,340.861 1462.44,327.016 1478.62,327.016Z" style="fill:rgb(136,172,122);"/>
            </g>
            <g>
                <path d="M1516.02,327.868C1532.2,327.868 1545.32,341.713 1545.32,358.792C1545.32,375.87 1532.2,389.715 1516.02,389.715C1499.84,389.715 1486.72,375.87 1486.72,358.792C1486.72,341.713 1499.84,327.868 1516.02,327.868Z" style="fill:rgb(136,172,122);"/>
            </g>
            <g>
                <path d="M1559.53,331.157C1575.71,331.157 1588.83,345.002 1588.83,362.08C1588.83,379.159 1575.71,393.003 1559.53,393.003C1543.34,393.003 1530.23,379.159 1530.23,362.08C1530.23,345.002 1543.34,331.157 1559.53,331.157Z" style="fill:rgb(136,172,122);"/>
            </g>
            <g>
                <path d="M1594.59,323.962C1610.77,323.962 1623.89,337.807 1623.89,354.885C1623.89,371.964 1610.77,385.809 1594.59,385.809C1578.41,385.809 1565.29,371.964 1565.29,354.885C1565.29,337.807 1578.41,323.962 1594.59,323.962Z" style="fill:rgb(136,172,122);"/>
            </g>
        </g>
        <g id="Bushes - Front">
            <g>
                <path d="M195.309,401.598C211.491,401.598 224.61,415.443 224.61,432.521C224.61,449.6 211.491,463.445 195.309,463.445C179.127,463.445 166.009,449.6 166.009,432.521C166.009,415.443 179.127,401.598 195.309,401.598Z" style="fill:rgb(109,146,95);"/>
            </g>
            <g>
                <path d="M234.482,390.046C250.664,390.046 263.782,403.891 263.782,420.969C263.782,438.048 250.664,451.892 234.482,451.892C218.3,451.892 205.182,438.048 205.182,420.969C205.182,403.891 218.3,390.046 234.482,390.046Z" style="fill:rgb(109,146,95);"/>
            </g>
            <g>
                <path d="M271.884,403.262C288.066,403.262 301.184,417.107 301.184,434.185C301.184,451.263 288.066,465.108 271.884,465.108C255.702,465.108 242.584,451.263 242.584,434.185C242.584,417.107 255.702,403.262 271.884,403.262Z" style="fill:rgb(109,146,95);"/>
            </g>
            <g>
                <path d="M315.387,406.551C331.57,406.551 344.688,420.395 344.688,437.474C344.688,454.552 331.57,468.397 315.387,468.397C299.205,468.397 286.087,454.552 286.087,437.474C286.087,420.395 299.205,406.551 315.387,406.551Z" style="fill:rgb(109,146,95);"/>
            </g>
            <g>
                <path d="M348.067,408.855C364.249,408.855 377.367,422.7 377.367,439.779C377.367,456.857 364.249,470.702 348.067,470.702C331.885,470.702 318.767,456.857 318.767,439.779C318.767,422.7 331.885,408.855 348.067,408.855Z" style="fill:rgb(109,146,95);"/>
            </g>
            <g>
                <path d="M385.861,409.603C402.043,409.603 415.161,423.448 415.161,440.527C415.161,457.605 402.043,471.45 385.861,471.45C369.679,471.45 356.561,457.605 356.561,440.527C356.561,423.448 369.679,409.603 385.861,409.603Z" style="fill:rgb(109,146,95);"/>
            </g>
            <g>
                <path d="M422.881,409.362C439.063,409.362 452.181,423.206 452.181,440.285C452.181,457.363 439.063,471.208 422.881,471.208C406.699,471.208 393.581,457.363 393.581,440.285C393.581,423.206 406.699,409.362 422.881,409.362Z" style="fill:rgb(109,146,95);"/>
            </g>
            <g>
                <path d="M467.101,406.555C483.283,406.555 496.401,420.4 496.401,437.478C496.401,454.556 483.283,468.401 467.101,468.401C450.919,468.401 437.8,454.556 437.8,437.478C437.8,420.4 450.919,406.555 467.101,406.555Z" style="fill:rgb(109,146,95);"/>
            </g>
            <g>
                <path d="M506.132,403.506C522.314,403.506 535.432,417.351 535.432,434.429C535.432,451.508 522.314,465.353 506.132,465.353C489.95,465.353 476.832,451.508 476.832,434.429C476.832,417.351 489.95,403.506 506.132,403.506Z" style="fill:rgb(109,146,95);"/>
            </g>
            <g>
                <path d="M4.89165,407.507C21.0737,407.507 34.1919,421.352 34.1919,438.43C34.1919,455.509 21.0737,469.353 4.89165,469.353C-11.2904,469.353 -24.4086,455.509 -24.4086,438.43C-24.4086,421.352 -11.2904,407.507 4.89165,407.507Z" style="fill:rgb(109,146,95);"/>
            </g>
            <g>
                <path d="M39.9568,400.312C56.1389,400.312 69.2571,414.157 69.2571,431.235C69.2571,448.314 56.1389,462.159 39.9568,462.159C23.7747,462.159 10.6565,448.314 10.6565,431.235C10.6565,414.157 23.7747,400.312 39.9568,400.312Z" style="fill:rgb(109,146,95);"/>
            </g>
            <g>
                <path d="M75.365,405.896C91.547,405.896 104.665,419.741 104.665,436.819C104.665,453.898 91.547,467.742 75.365,467.742C59.1829,467.742 46.0647,453.898 46.0647,436.819C46.0647,419.741 59.1829,405.896 75.365,405.896Z" style="fill:rgb(109,146,95);"/>
            </g>
            <g>
                <path d="M112.385,403.747C128.567,403.747 141.686,417.591 141.686,434.67C141.686,451.748 128.567,465.593 112.385,465.593C96.2032,465.593 83.085,451.748 83.085,434.67C83.085,417.591 96.2032,403.747 112.385,403.747Z" style="fill:rgb(109,146,95);"/>
            </g>
            <g>
                <path d="M156.605,407.511C172.787,407.511 185.905,421.356 185.905,438.434C185.905,455.513 172.787,469.358 156.605,469.358C140.423,469.358 127.305,455.513 127.305,438.434C127.305,421.356 140.423,407.511 156.605,407.511Z" style="fill:rgb(109,146,95);"/>
            </g>
            <g>
                <path d="M195.636,404.463C211.818,404.463 224.936,418.307 224.936,435.386C224.936,452.464 211.818,466.309 195.636,466.309C179.454,466.309 166.336,452.464 166.336,435.386C166.336,418.307 179.454,404.463 195.636,404.463Z" style="fill:rgb(109,146,95);"/>
            </g>
            <g>
                <path d="M542.772,397.176C558.954,397.176 572.072,411.02 572.072,428.099C572.072,445.177 558.954,459.022 542.772,459.022C526.589,459.022 513.471,445.177 513.471,428.099C513.471,411.02 526.589,397.176 542.772,397.176Z" style="fill:rgb(109,146,95);"/>
            </g>
            <g>
                <path d="M586.381,404.604C602.563,404.604 615.682,418.449 615.682,435.527C615.682,452.606 602.563,466.45 586.381,466.45C570.199,466.45 557.081,452.606 557.081,435.527C557.081,418.449 570.199,404.604 586.381,404.604Z" style="fill:rgb(109,146,95);"/>
            </g>
            <g>
                <path d="M625.554,410.611C641.736,410.611 654.854,424.456 654.854,441.534C654.854,458.613 641.736,472.457 625.554,472.457C609.372,472.457 596.254,458.613 596.254,441.534C596.254,424.456 609.372,410.611 625.554,410.611Z" style="fill:rgb(109,146,95);"/>
            </g>
            <g>
                <path d="M662.956,406.268C679.138,406.268 692.256,420.112 692.256,437.191C692.256,454.269 679.138,468.114 662.956,468.114C646.774,468.114 633.656,454.269 633.656,437.191C633.656,420.112 646.774,406.268 662.956,406.268Z" style="fill:rgb(109,146,95);"/>
            </g>
            <g>
                <path d="M706.459,409.556C722.642,409.556 735.76,423.401 735.76,440.479C735.76,457.558 722.642,471.403 706.459,471.403C690.277,471.403 677.159,457.558 677.159,440.479C677.159,423.401 690.277,409.556 706.459,409.556Z" style="fill:rgb(109,146,95);"/>
            </g>
            <g>
                <path d="M740.568,395.194C756.75,395.194 769.868,409.038 769.868,426.117C769.868,443.195 756.75,457.04 740.568,457.04C724.386,457.04 711.268,443.195 711.268,426.117C711.268,409.038 724.386,395.194 740.568,395.194Z" style="fill:rgb(109,146,95);"/>
            </g>
            <g>
                <path d="M776.933,412.609C793.115,412.609 806.233,426.454 806.233,443.532C806.233,460.611 793.115,474.456 776.933,474.456C760.751,474.456 747.632,460.611 747.632,443.532C747.632,426.454 760.751,412.609 776.933,412.609Z" style="fill:rgb(109,146,95);"/>
            </g>
            <g>
                <path d="M813.953,412.964C830.135,412.964 843.253,426.808 843.253,443.887C843.253,460.965 830.135,474.81 813.953,474.81C797.771,474.81 784.653,460.965 784.653,443.887C784.653,426.808 797.771,412.964 813.953,412.964Z" style="fill:rgb(109,146,95);"/>
            </g>
            <g>
                <path d="M858.173,409.561C874.355,409.561 887.473,423.405 887.473,440.484C887.473,457.562 874.355,471.407 858.173,471.407C841.99,471.407 828.872,457.562 828.872,440.484C828.872,423.405 841.99,409.561 858.173,409.561Z" style="fill:rgb(109,146,95);"/>
            </g>
            <g>
                <path d="M897.204,406.512C913.386,406.512 926.504,420.357 926.504,437.435C926.504,454.514 913.386,468.358 897.204,468.358C881.022,468.358 867.904,454.514 867.904,437.435C867.904,420.357 881.022,406.512 897.204,406.512Z" style="fill:rgb(109,146,95);"/>
            </g>
            <g>
                <path d="M935.219,405.744C951.401,405.744 964.519,419.589 964.519,436.668C964.519,453.746 951.401,467.591 935.219,467.591C919.037,467.591 905.919,453.746 905.919,436.668C905.919,419.589 919.037,405.744 935.219,405.744Z" style="fill:rgb(109,146,95);"/>
            </g>
            <g>
                <path d="M966.322,407.228C982.504,407.228 995.623,421.073 995.623,438.151C995.623,455.23 982.504,469.074 966.322,469.074C950.14,469.074 937.022,455.23 937.022,438.151C937.022,421.073 950.14,407.228 966.322,407.228Z" style="fill:rgb(109,146,95);"/>
            </g>
            <g>
                <path d="M1005.5,413.235C1021.68,413.235 1034.8,427.08 1034.8,444.158C1034.8,461.237 1021.68,475.082 1005.5,475.082C989.313,475.082 976.195,461.237 976.195,444.158C976.195,427.08 989.313,413.235 1005.5,413.235Z" style="fill:rgb(109,146,95);"/>
            </g>
            <g>
                <path d="M1042.9,408.892C1059.08,408.892 1072.2,422.736 1072.2,439.815C1072.2,456.893 1059.08,470.738 1042.9,470.738C1026.71,470.738 1013.6,456.893 1013.6,439.815C1013.6,422.736 1026.71,408.892 1042.9,408.892Z" style="fill:rgb(109,146,95);"/>
            </g>
            <g>
                <path d="M1086.4,412.18C1102.58,412.18 1115.7,426.025 1115.7,443.104C1115.7,460.182 1102.58,474.027 1086.4,474.027C1070.22,474.027 1057.1,460.182 1057.1,443.104C1057.1,426.025 1070.22,412.18 1086.4,412.18Z" style="fill:rgb(109,146,95);"/>
            </g>
            <g>
                <path d="M1121.47,404.986C1137.65,404.986 1150.77,418.83 1150.77,435.909C1150.77,452.987 1137.65,466.832 1121.47,466.832C1105.28,466.832 1092.17,452.987 1092.17,435.909C1092.17,418.83 1105.28,404.986 1121.47,404.986Z" style="fill:rgb(109,146,95);"/>
            </g>
            <g>
                <path d="M1156.87,415.233C1173.06,415.233 1186.17,429.078 1186.17,446.156C1186.17,463.235 1173.06,477.08 1156.87,477.08C1140.69,477.08 1127.57,463.235 1127.57,446.156C1127.57,429.078 1140.69,415.233 1156.87,415.233Z" style="fill:rgb(109,146,95);"/>
            </g>
            <g>
                <path d="M1193.89,408.42C1210.08,408.42 1223.19,422.265 1223.19,439.343C1223.19,456.422 1210.08,470.266 1193.89,470.266C1177.71,470.266 1164.59,456.422 1164.59,439.343C1164.59,422.265 1177.71,408.42 1193.89,408.42Z" style="fill:rgb(109,146,95);"/>
            </g>
            <g>
                <path d="M1238.11,412.185C1254.3,412.185 1267.41,426.029 1267.41,443.108C1267.41,460.186 1254.3,474.031 1238.11,474.031C1221.93,474.031 1208.81,460.186 1208.81,443.108C1208.81,426.029 1221.93,412.185 1238.11,412.185Z" style="fill:rgb(109,146,95);"/>
            </g>
            <g>
                <path d="M1277.14,409.136C1293.33,409.136 1306.45,422.981 1306.45,440.059C1306.45,457.138 1293.33,470.982 1277.14,470.982C1260.96,470.982 1247.84,457.138 1247.84,440.059C1247.84,422.981 1260.96,409.136 1277.14,409.136Z" style="fill:rgb(109,146,95);"/>
            </g>
            <g>
                <path d="M1315.16,408.369C1331.34,408.369 1344.46,422.213 1344.46,439.292C1344.46,456.37 1331.34,470.215 1315.16,470.215C1298.98,470.215 1285.86,456.37 1285.86,439.292C1285.86,422.213 1298.98,408.369 1315.16,408.369Z" style="fill:rgb(109,146,95);"/>
            </g>
            <g>
                <path d="M1158.94,409.878C1175.13,409.878 1188.24,423.723 1188.24,440.801C1188.24,457.879 1175.13,471.724 1158.94,471.724C1142.76,471.724 1129.64,457.879 1129.64,440.801C1129.64,423.723 1142.76,409.878 1158.94,409.878Z" style="fill:rgb(109,146,95);"/>
            </g>
            <g>
                <path d="M1198.12,415.885C1214.3,415.885 1227.42,429.73 1227.42,446.808C1227.42,463.887 1214.3,477.731 1198.12,477.731C1181.94,477.731 1168.82,463.887 1168.82,446.808C1168.82,429.73 1181.94,415.885 1198.12,415.885Z" style="fill:rgb(109,146,95);"/>
            </g>
            <g>
                <path d="M1235.52,399.183C1251.7,399.183 1264.82,413.028 1264.82,430.107C1264.82,447.185 1251.7,461.03 1235.52,461.03C1219.34,461.03 1206.22,447.185 1206.22,430.107C1206.22,413.028 1219.34,399.183 1235.52,399.183Z" style="fill:rgb(109,146,95);"/>
            </g>
            <g>
                <path d="M1279.02,414.83C1295.2,414.83 1308.32,428.675 1308.32,445.753C1308.32,462.832 1295.2,476.677 1279.02,476.677C1262.84,476.677 1249.72,462.832 1249.72,445.753C1249.72,428.675 1262.84,414.83 1279.02,414.83Z" style="fill:rgb(109,146,95);"/>
            </g>
            <g>
                <path d="M1314.09,407.635C1330.27,407.635 1343.39,421.48 1343.39,438.559C1343.39,455.637 1330.27,469.482 1314.09,469.482C1297.91,469.482 1284.79,455.637 1284.79,438.559C1284.79,421.48 1297.91,407.635 1314.09,407.635Z" style="fill:rgb(109,146,95);"/>
            </g>
            <g>
                <path d="M1349.5,417.883C1365.68,417.883 1378.8,431.728 1378.8,448.806C1378.8,465.885 1365.68,479.729 1349.5,479.729C1333.31,479.729 1320.2,465.885 1320.2,448.806C1320.2,431.728 1333.31,417.883 1349.5,417.883Z" style="fill:rgb(109,146,95);"/>
            </g>
            <g>
                <path d="M1386.52,411.07C1402.7,411.07 1415.82,424.915 1415.82,441.993C1415.82,459.071 1402.7,472.916 1386.52,472.916C1370.33,472.916 1357.22,459.071 1357.22,441.993C1357.22,424.915 1370.33,411.07 1386.52,411.07Z" style="fill:rgb(109,146,95);"/>
            </g>
            <g>
                <path d="M1430.74,414.834C1446.92,414.834 1460.04,428.679 1460.04,445.758C1460.04,462.836 1446.92,476.681 1430.74,476.681C1414.55,476.681 1401.44,462.836 1401.44,445.758C1401.44,428.679 1414.55,414.834 1430.74,414.834Z" style="fill:rgb(109,146,95);"/>
            </g>
            <g>
                <path d="M1469.77,411.786C1485.95,411.786 1499.07,425.631 1499.07,442.709C1499.07,459.787 1485.95,473.632 1469.77,473.632C1453.59,473.632 1440.47,459.787 1440.47,442.709C1440.47,425.631 1453.59,411.786 1469.77,411.786Z" style="fill:rgb(109,146,95);"/>
            </g>
            <g>
                <path d="M1507.78,411.018C1523.96,411.018 1537.08,424.863 1537.08,441.942C1537.08,459.02 1523.96,472.865 1507.78,472.865C1491.6,472.865 1478.48,459.02 1478.48,441.942C1478.48,424.863 1491.6,411.018 1507.78,411.018Z" style="fill:rgb(109,146,95);"/>
            </g>
            <g>
                <rect x="-2.96111" y="437.747" width="1688.81" height="227.917" style="fill:rgb(109,146,95);"/>
            </g>
            <g>
                <path d="M1466.64,406.676C1482.82,406.676 1495.94,420.521 1495.94,437.599C1495.94,454.677 1482.82,468.522 1466.64,468.522C1450.46,468.522 1437.34,454.677 1437.34,437.599C1437.34,420.521 1450.46,406.676 1466.64,406.676Z" style="fill:rgb(109,146,95);"/>
            </g>
            <g>
                <path d="M1505.81,412.683C1522,412.683 1535.12,426.528 1535.12,443.606C1535.12,460.685 1522,474.529 1505.81,474.529C1489.63,474.529 1476.51,460.685 1476.51,443.606C1476.51,426.528 1489.63,412.683 1505.81,412.683Z" style="fill:rgb(109,146,95);"/>
            </g>
            <g>
                <path d="M1543.22,402.719C1559.4,402.719 1572.52,416.564 1572.52,433.642C1572.52,450.721 1559.4,464.566 1543.22,464.566C1527.03,464.566 1513.92,450.721 1513.92,433.642C1513.92,416.564 1527.03,402.719 1543.22,402.719Z" style="fill:rgb(109,146,95);"/>
            </g>
            <g>
                <path d="M1586.72,411.628C1602.9,411.628 1616.02,425.473 1616.02,442.551C1616.02,459.63 1602.9,473.475 1586.72,473.475C1570.54,473.475 1557.42,459.63 1557.42,442.551C1557.42,425.473 1570.54,411.628 1586.72,411.628Z" style="fill:rgb(109,146,95);"/>
            </g>
            <g>
                <path d="M1621.79,404.433C1637.97,404.433 1651.09,418.278 1651.09,435.357C1651.09,452.435 1637.97,466.28 1621.79,466.28C1605.6,466.28 1592.49,452.435 1592.49,435.357C1592.49,418.278 1605.6,404.433 1621.79,404.433Z" style="fill:rgb(109,146,95);"/>
            </g>
        </g>
        <g id="Ground">
            <g>
                <rect x="-23.0827" y="625.379" width="1633.12" height="385.758" style="fill:rgb(119,168,100);"/>
            </g>
        </g>
    </g>
</svg>
