<?xml version="1.0" standalone="no"?>
<!DOCTYPE svg PUBLIC "-//W3C//DTD SVG 1.1//EN" "http://www.w3.org/Graphics/SVG/1.1/DTD/svg11.dtd">
<svg width="1604px" height="1000px" version="1.1" xmlns="http://www.w3.org/2000/svg" xmlns:xlink="http://www.w3.org/1999/xlink" xml:space="preserve" style="fill-rule:evenodd;clip-rule:evenodd;stroke-linejoin:round;stroke-miterlimit:1.41421;">
    <g>
        <g id="Skybox">
            <g>
                <rect x="-5.32326" y="-5.86465" width="1648.49" height="744.194" style="fill:rgb(127,176,220);"/>
            </g>
        </g>
        <g id="TreeTrunks - Rear">
            <g>
                <rect x="1169.64" y="204.6" width="62.7459" height="464.491" style="fill:rgb(152,135,121);"/>
            </g>
            <rect x="1040.2" y="177.816" width="68.4354" height="501.799" style="fill:rgb(152,135,121);"/>
            <g>
                <rect x="906.116" y="178.622" width="68.4354" height="501.799" style="fill:rgb(152,135,121);"/>
            </g>
            <g>
                <rect x="667.669" y="182.25" width="68.4354" height="501.799" style="fill:rgb(152,135,121);"/>
            </g>
            <g>
                <rect x="418.33" y="176.581" width="68.4354" height="501.799" style="fill:rgb(152,135,121);"/>
            </g>
            <g>
                <rect x="128.292" y="178.489" width="68.4354" height="501.799" style="fill:rgb(152,135,121);"/>
            </g>
            <g>
                <rect x="1396.41" y="187.301" width="68.4354" height="501.799" style="fill:rgb(152,135,121);"/>
            </g>
        </g>
        <g id="Ground">
            <g>
                <rect x="-23.0827" y="570.292" width="1633.12" height="440.845" style="fill:rgb(118,136,111);"/>
            </g>
        </g>
        <g id="TreeTrunks - Front">
            <g id="TreeTrunks">
                <g>
                    <rect x="1277.96" y="212.519" width="84.3222" height="395.816" style="fill:rgb(152,135,121);"/>
                </g>
                <g>
                    <rect x="1027.57" y="201.817" width="91.9683" height="427.607" style="fill:rgb(152,135,121);"/>
                </g>
                <g>
                    <rect x="780.161" y="174.322" width="91.9683" height="427.607" style="fill:rgb(152,135,121);"/>
                </g>
                <g>
                    <rect x="530.502" y="160.237" width="91.9683" height="427.607" style="fill:rgb(152,135,121);"/>
                </g>
                <g>
                    <rect x="276.365" y="185.539" width="91.9683" height="427.607" style="fill:rgb(152,135,121);"/>
                </g>
                <g>
                    <rect x="-16.7247" y="179.437" width="91.9683" height="427.607" style="fill:rgb(152,135,121);"/>
                </g>
                <g>
                    <rect x="1524.84" y="183.741" width="91.9683" height="427.607" style="fill:rgb(152,135,121);"/>
                </g>
            </g>
        </g>
        <g id="TreeTops">
            <path d="M179.5,166.478C195.682,166.478 208.8,180.323 208.8,197.401C208.8,214.48 195.682,228.324 179.5,228.324C163.318,228.324 150.2,214.48 150.2,197.401C150.2,180.323 163.318,166.478 179.5,166.478Z" style="fill:rgb(109,146,95);"/>
            <g>
                <path d="M218.673,172.485C234.855,172.485 247.973,186.33 247.973,203.408C247.973,220.487 234.855,234.332 218.673,234.332C202.491,234.332 189.373,220.487 189.373,203.408C189.373,186.33 202.491,172.485 218.673,172.485Z" style="fill:rgb(109,146,95);"/>
            </g>
            <g>
                <path d="M256.075,168.142C272.257,168.142 285.375,181.987 285.375,199.065C285.375,216.143 272.257,229.988 256.075,229.988C239.893,229.988 226.775,216.143 226.775,199.065C226.775,181.987 239.893,168.142 256.075,168.142Z" style="fill:rgb(109,146,95);"/>
            </g>
            <g>
                <path d="M299.578,171.43C315.76,171.43 328.879,185.275 328.879,202.354C328.879,219.432 315.76,233.277 299.578,233.277C283.396,233.277 270.278,219.432 270.278,202.354C270.278,185.275 283.396,171.43 299.578,171.43Z" style="fill:rgb(109,146,95);"/>
            </g>
            <g>
                <path d="M334.643,164.236C350.826,164.236 363.944,178.08 363.944,195.159C363.944,212.237 350.826,226.082 334.643,226.082C318.461,226.082 305.343,212.237 305.343,195.159C305.343,178.08 318.461,164.236 334.643,164.236Z" style="fill:rgb(109,146,95);"/>
            </g>
            <g>
                <path d="M370.052,174.483C386.234,174.483 399.352,188.328 399.352,205.406C399.352,222.485 386.234,236.33 370.052,236.33C353.869,236.33 340.751,222.485 340.751,205.406C340.751,188.328 353.869,174.483 370.052,174.483Z" style="fill:rgb(109,146,95);"/>
            </g>
            <g>
                <path d="M407.072,167.67C423.254,167.67 436.372,181.515 436.372,198.593C436.372,215.672 423.254,229.516 407.072,229.516C390.89,229.516 377.772,215.672 377.772,198.593C377.772,181.515 390.89,167.67 407.072,167.67Z" style="fill:rgb(109,146,95);"/>
            </g>
            <g>
                <path d="M451.291,171.435C467.474,171.435 480.592,185.279 480.592,202.358C480.592,219.436 467.474,233.281 451.291,233.281C435.109,233.281 421.991,219.436 421.991,202.358C421.991,185.279 435.109,171.435 451.291,171.435Z" style="fill:rgb(109,146,95);"/>
            </g>
            <g>
                <path d="M490.323,168.386C506.505,168.386 519.623,182.231 519.623,199.309C519.623,216.388 506.505,230.233 490.323,230.233C474.141,230.233 461.022,216.388 461.022,199.309C461.022,182.231 474.141,168.386 490.323,168.386Z" style="fill:rgb(109,146,95);"/>
            </g>
            <g>
                <path d="M-10.9176,172.387C5.26454,172.387 18.3827,186.232 18.3827,203.31C18.3827,220.388 5.26454,234.233 -10.9176,234.233C-27.0997,234.233 -40.2178,220.388 -40.2178,203.31C-40.2178,186.232 -27.0997,172.387 -10.9176,172.387Z" style="fill:rgb(109,146,95);"/>
            </g>
            <g>
                <path d="M24.1476,165.192C40.3297,165.192 53.4479,179.037 53.4479,196.115C53.4479,213.194 40.3297,227.038 24.1476,227.038C7.96549,227.038 -5.15269,213.194 -5.15269,196.115C-5.15269,179.037 7.96549,165.192 24.1476,165.192Z" style="fill:rgb(109,146,95);"/>
            </g>
            <g>
                <path d="M59.5558,175.44C75.7378,175.44 88.856,189.284 88.856,206.363C88.856,223.441 75.7378,237.286 59.5558,237.286C43.3737,237.286 30.2555,223.441 30.2555,206.363C30.2555,189.284 43.3737,175.44 59.5558,175.44Z" style="fill:rgb(109,146,95);"/>
            </g>
            <g>
                <path d="M96.5761,168.626C112.758,168.626 125.876,182.471 125.876,199.55C125.876,216.628 112.758,230.473 96.5761,230.473C80.394,230.473 67.2758,216.628 67.2758,199.55C67.2758,182.471 80.394,168.626 96.5761,168.626Z" style="fill:rgb(109,146,95);"/>
            </g>
            <g>
                <path d="M140.796,172.391C156.978,172.391 170.096,186.236 170.096,203.314C170.096,220.393 156.978,234.238 140.796,234.238C124.613,234.238 111.495,220.393 111.495,203.314C111.495,186.236 124.613,172.391 140.796,172.391Z" style="fill:rgb(109,146,95);"/>
            </g>
            <g>
                <path d="M179.827,169.343C196.009,169.343 209.127,183.187 209.127,200.266C209.127,217.344 196.009,231.189 179.827,231.189C163.645,231.189 150.527,217.344 150.527,200.266C150.527,183.187 163.645,169.343 179.827,169.343Z" style="fill:rgb(109,146,95);"/>
            </g>
            <g>
                <path d="M528.338,167.619C544.52,167.619 557.638,181.463 557.638,198.542C557.638,215.62 544.52,229.465 528.338,229.465C512.156,229.465 499.038,215.62 499.038,198.542C499.038,181.463 512.156,167.619 528.338,167.619Z" style="fill:rgb(109,146,95);"/>
            </g>
            <g>
                <path d="M570.572,169.484C586.754,169.484 599.872,183.329 599.872,200.407C599.872,217.485 586.754,231.33 570.572,231.33C554.39,231.33 541.272,217.485 541.272,200.407C541.272,183.329 554.39,169.484 570.572,169.484Z" style="fill:rgb(109,146,95);"/>
            </g>
            <g>
                <path d="M609.745,175.491C625.927,175.491 639.045,189.336 639.045,206.414C639.045,223.493 625.927,237.337 609.745,237.337C593.563,237.337 580.445,223.493 580.445,206.414C580.445,189.336 593.563,175.491 609.745,175.491Z" style="fill:rgb(109,146,95);"/>
            </g>
            <g>
                <path d="M647.147,171.147C663.329,171.147 676.447,184.992 676.447,202.071C676.447,219.149 663.329,232.994 647.147,232.994C630.965,232.994 617.847,219.149 617.847,202.071C617.847,184.992 630.965,171.147 647.147,171.147Z" style="fill:rgb(109,146,95);"/>
            </g>
            <g>
                <path d="M690.65,174.436C706.832,174.436 719.951,188.281 719.951,205.359C719.951,222.438 706.832,236.283 690.65,236.283C674.468,236.283 661.35,222.438 661.35,205.359C661.35,188.281 674.468,174.436 690.65,174.436Z" style="fill:rgb(109,146,95);"/>
            </g>
            <g>
                <path d="M725.715,167.241C741.897,167.241 755.016,181.086 755.016,198.164C755.016,215.243 741.897,229.088 725.715,229.088C709.533,229.088 696.415,215.243 696.415,198.164C696.415,181.086 709.533,167.241 725.715,167.241Z" style="fill:rgb(109,146,95);"/>
            </g>
            <g>
                <path d="M761.124,177.489C777.306,177.489 790.424,191.334 790.424,208.412C790.424,225.491 777.306,239.335 761.124,239.335C744.941,239.335 731.823,225.491 731.823,208.412C731.823,191.334 744.941,177.489 761.124,177.489Z" style="fill:rgb(109,146,95);"/>
            </g>
            <g>
                <path d="M798.144,170.676C814.326,170.676 827.444,184.521 827.444,201.599C827.444,218.677 814.326,232.522 798.144,232.522C781.962,232.522 768.844,218.677 768.844,201.599C768.844,184.521 781.962,170.676 798.144,170.676Z" style="fill:rgb(109,146,95);"/>
            </g>
            <g>
                <path d="M842.363,174.44C858.545,174.44 871.664,188.285 871.664,205.364C871.664,222.442 858.545,236.287 842.363,236.287C826.181,236.287 813.063,222.442 813.063,205.364C813.063,188.285 826.181,174.44 842.363,174.44Z" style="fill:rgb(109,146,95);"/>
            </g>
            <g>
                <path d="M881.395,171.392C897.577,171.392 910.695,185.237 910.695,202.315C910.695,219.393 897.577,233.238 881.395,233.238C865.213,233.238 852.094,219.393 852.094,202.315C852.094,185.237 865.213,171.392 881.395,171.392Z" style="fill:rgb(109,146,95);"/>
            </g>
            <g>
                <path d="M919.41,170.624C935.592,170.624 948.71,184.469 948.71,201.548C948.71,218.626 935.592,232.471 919.41,232.471C903.228,232.471 890.11,218.626 890.11,201.548C890.11,184.469 903.228,170.624 919.41,170.624Z" style="fill:rgb(109,146,95);"/>
            </g>
            <g>
                <path d="M950.513,172.108C966.695,172.108 979.813,185.953 979.813,203.031C979.813,220.109 966.695,233.954 950.513,233.954C934.331,233.954 921.213,220.109 921.213,203.031C921.213,185.953 934.331,172.108 950.513,172.108Z" style="fill:rgb(109,146,95);"/>
            </g>
            <g>
                <path d="M989.686,178.115C1005.87,178.115 1018.99,191.96 1018.99,209.038C1018.99,226.117 1005.87,239.961 989.686,239.961C973.504,239.961 960.386,226.117 960.386,209.038C960.386,191.96 973.504,178.115 989.686,178.115Z" style="fill:rgb(109,146,95);"/>
            </g>
            <g>
                <path d="M1027.09,173.772C1043.27,173.772 1056.39,187.616 1056.39,204.695C1056.39,221.773 1043.27,235.618 1027.09,235.618C1010.91,235.618 997.788,221.773 997.788,204.695C997.788,187.616 1010.91,173.772 1027.09,173.772Z" style="fill:rgb(109,146,95);"/>
            </g>
            <g>
                <path d="M1070.59,177.06C1086.77,177.06 1099.89,190.905 1099.89,207.983C1099.89,225.062 1086.77,238.907 1070.59,238.907C1054.41,238.907 1041.29,225.062 1041.29,207.983C1041.29,190.905 1054.41,177.06 1070.59,177.06Z" style="fill:rgb(109,146,95);"/>
            </g>
            <g>
                <path d="M1105.66,169.865C1121.84,169.865 1134.96,183.71 1134.96,200.789C1134.96,217.867 1121.84,231.712 1105.66,231.712C1089.47,231.712 1076.36,217.867 1076.36,200.789C1076.36,183.71 1089.47,169.865 1105.66,169.865Z" style="fill:rgb(109,146,95);"/>
            </g>
            <g>
                <path d="M1141.06,180.113C1157.25,180.113 1170.36,193.958 1170.36,211.036C1170.36,228.115 1157.25,241.959 1141.06,241.959C1124.88,241.959 1111.76,228.115 1111.76,211.036C1111.76,193.958 1124.88,180.113 1141.06,180.113Z" style="fill:rgb(109,146,95);"/>
            </g>
            <g>
                <path d="M1178.08,173.3C1194.27,173.3 1207.39,187.145 1207.39,204.223C1207.39,221.301 1194.27,235.146 1178.08,235.146C1161.9,235.146 1148.78,221.301 1148.78,204.223C1148.78,187.145 1161.9,173.3 1178.08,173.3Z" style="fill:rgb(109,146,95);"/>
            </g>
            <g>
                <path d="M1222.3,177.065C1238.49,177.065 1251.6,190.909 1251.6,207.988C1251.6,225.066 1238.49,238.911 1222.3,238.911C1206.12,238.911 1193,225.066 1193,207.988C1193,190.909 1206.12,177.065 1222.3,177.065Z" style="fill:rgb(109,146,95);"/>
            </g>
            <g>
                <path d="M1261.34,174.016C1277.52,174.016 1290.64,187.861 1290.64,204.939C1290.64,222.018 1277.52,235.862 1261.34,235.862C1245.15,235.862 1232.04,222.018 1232.04,204.939C1232.04,187.861 1245.15,174.016 1261.34,174.016Z" style="fill:rgb(109,146,95);"/>
            </g>
            <g>
                <path d="M1299.35,173.248C1315.53,173.248 1328.65,187.093 1328.65,204.172C1328.65,221.25 1315.53,235.095 1299.35,235.095C1283.17,235.095 1270.05,221.25 1270.05,204.172C1270.05,187.093 1283.17,173.248 1299.35,173.248Z" style="fill:rgb(109,146,95);"/>
            </g>
            <g>
                <path d="M1143.14,174.758C1159.32,174.758 1172.44,188.602 1172.44,205.681C1172.44,222.759 1159.32,236.604 1143.14,236.604C1126.95,236.604 1113.84,222.759 1113.84,205.681C1113.84,188.602 1126.95,174.758 1143.14,174.758Z" style="fill:rgb(109,146,95);"/>
            </g>
            <g>
                <path d="M1182.31,180.765C1198.49,180.765 1211.61,194.61 1211.61,211.688C1211.61,228.766 1198.49,242.611 1182.31,242.611C1166.13,242.611 1153.01,228.766 1153.01,211.688C1153.01,194.61 1166.13,180.765 1182.31,180.765Z" style="fill:rgb(109,146,95);"/>
            </g>
            <g>
                <path d="M1219.71,176.421C1235.89,176.421 1249.01,190.266 1249.01,207.345C1249.01,224.423 1235.89,238.268 1219.71,238.268C1203.53,238.268 1190.41,224.423 1190.41,207.345C1190.41,190.266 1203.53,176.421 1219.71,176.421Z" style="fill:rgb(109,146,95);"/>
            </g>
            <g>
                <path d="M1263.21,179.71C1279.4,179.71 1292.51,193.555 1292.51,210.633C1292.51,227.712 1279.4,241.556 1263.21,241.556C1247.03,241.556 1233.91,227.712 1233.91,210.633C1233.91,193.555 1247.03,179.71 1263.21,179.71Z" style="fill:rgb(109,146,95);"/>
            </g>
            <g>
                <path d="M1298.28,172.515C1314.46,172.515 1327.58,186.36 1327.58,203.438C1327.58,220.517 1314.46,234.362 1298.28,234.362C1282.1,234.362 1268.98,220.517 1268.98,203.438C1268.98,186.36 1282.1,172.515 1298.28,172.515Z" style="fill:rgb(109,146,95);"/>
            </g>
            <g>
                <path d="M1333.69,182.763C1349.87,182.763 1362.99,196.608 1362.99,213.686C1362.99,230.765 1349.87,244.609 1333.69,244.609C1317.5,244.609 1304.39,230.765 1304.39,213.686C1304.39,196.608 1317.5,182.763 1333.69,182.763Z" style="fill:rgb(109,146,95);"/>
            </g>
            <g>
                <path d="M1370.71,175.95C1386.89,175.95 1400.01,189.794 1400.01,206.873C1400.01,223.951 1386.89,237.796 1370.71,237.796C1354.53,237.796 1341.41,223.951 1341.41,206.873C1341.41,189.794 1354.53,175.95 1370.71,175.95Z" style="fill:rgb(109,146,95);"/>
            </g>
            <g>
                <path d="M1414.93,179.714C1431.11,179.714 1444.23,193.559 1444.23,210.638C1444.23,227.716 1431.11,241.561 1414.93,241.561C1398.74,241.561 1385.63,227.716 1385.63,210.638C1385.63,193.559 1398.74,179.714 1414.93,179.714Z" style="fill:rgb(109,146,95);"/>
            </g>
            <g>
                <path d="M1453.96,176.666C1470.14,176.666 1483.26,190.511 1483.26,207.589C1483.26,224.667 1470.14,238.512 1453.96,238.512C1437.78,238.512 1424.66,224.667 1424.66,207.589C1424.66,190.511 1437.78,176.666 1453.96,176.666Z" style="fill:rgb(109,146,95);"/>
            </g>
            <g>
                <path d="M1491.97,175.898C1508.16,175.898 1521.27,189.743 1521.27,206.821C1521.27,223.9 1508.16,237.745 1491.97,237.745C1475.79,237.745 1462.67,223.9 1462.67,206.821C1462.67,189.743 1475.79,175.898 1491.97,175.898Z" style="fill:rgb(109,146,95);"/>
            </g>
            <g>
                <rect x="-18.8294" y="-4.84726" width="1688.81" height="195.481" style="fill:rgb(109,146,95);"/>
            </g>
            <g>
                <path d="M1450.83,171.556C1467.01,171.556 1480.13,185.4 1480.13,202.479C1480.13,219.557 1467.01,233.402 1450.83,233.402C1434.65,233.402 1421.53,219.557 1421.53,202.479C1421.53,185.4 1434.65,171.556 1450.83,171.556Z" style="fill:rgb(109,146,95);"/>
            </g>
            <g>
                <path d="M1490.01,177.563C1506.19,177.563 1519.31,191.408 1519.31,208.486C1519.31,225.564 1506.19,239.409 1490.01,239.409C1473.82,239.409 1460.71,225.564 1460.71,208.486C1460.71,191.408 1473.82,177.563 1490.01,177.563Z" style="fill:rgb(109,146,95);"/>
            </g>
            <g>
                <path d="M1527.41,173.219C1543.59,173.219 1556.71,187.064 1556.71,204.143C1556.71,221.221 1543.59,235.066 1527.41,235.066C1511.23,235.066 1498.11,221.221 1498.11,204.143C1498.11,187.064 1511.23,173.219 1527.41,173.219Z" style="fill:rgb(109,146,95);"/>
            </g>
            <g>
                <path d="M1570.91,176.508C1587.09,176.508 1600.21,190.353 1600.21,207.431C1600.21,224.51 1587.09,238.354 1570.91,238.354C1554.73,238.354 1541.61,224.51 1541.61,207.431C1541.61,190.353 1554.73,176.508 1570.91,176.508Z" style="fill:rgb(109,146,95);"/>
            </g>
            <g>
                <path d="M1605.98,169.313C1622.16,169.313 1635.28,183.158 1635.28,200.236C1635.28,217.315 1622.16,231.16 1605.98,231.16C1589.79,231.16 1576.68,217.315 1576.68,200.236C1576.68,183.158 1589.79,169.313 1605.98,169.313Z" style="fill:rgb(109,146,95);"/>
            </g>
        </g>
    </g>
</svg>
